<?xml version="1.0" standalone="no"?>
<!DOCTYPE svg PUBLIC "-//W3C//DTD SVG 20010904//EN"
 "http://www.w3.org/TR/2001/REC-SVG-20010904/DTD/svg10.dtd">
<svg version="1.0" xmlns="http://www.w3.org/2000/svg"
 width="400.000000pt" height="400.000000pt" viewBox="0 0 400.000000 400.000000"
 preserveAspectRatio="xMidYMid meet">
<metadata>
Created by potrace 1.14, written by Peter Selinger 2001-2017
</metadata>
<g transform="translate(0.000000,400.000000) scale(0.100000,-0.100000)"
fill="#000000" stroke="none">
<path d="M0 2000 l0 -2000 2000 0 2000 0 0 2000 0 2000 -2000 0 -2000 0 0
-2000z m3187 523 c-3 -753 -4 -792 -24 -878 -57 -250 -154 -434 -321 -607
-192 -201 -424 -327 -686 -373 -90 -15 -326 -21 -326 -7 0 4 27 107 61 230
l62 222 34 0 c52 0 181 29 246 55 231 94 404 294 467 539 19 74 20 111 20 605
0 289 5 560 10 600 13 97 55 186 122 257 83 88 194 143 291 144 l48 0 -4 -787z
m-1000 593 c99 -21 215 -61 293 -99 l65 -32 3 -297 2 -297 -58 59 c-239 239
-612 296 -913 139 -372 -194 -526 -648 -349 -1028 90 -192 260 -343 463 -412
45 -15 81 -31 81 -36 -2 -14 -117 -428 -120 -432 -8 -9 -183 54 -273 99 -338
170 -584 489 -662 860 -26 124 -31 341 -10 460 74 423 370 792 762 949 83 33
205 66 294 80 86 14 337 6 422 -13z"/>
</g>
</svg>
