<?xml version="1.0" encoding="utf-8"?>
<!-- Generator: Adobe Illustrator 19.0.0, SVG Export Plug-In . SVG Version: 6.00 Build 0)  -->
<svg version="1.1" id="Layer_1" xmlns="http://www.w3.org/2000/svg" xmlns:xlink="http://www.w3.org/1999/xlink" x="0px" y="0px"
	 width="100px" height="100px" viewBox="0 0 100 100" style="enable-background:new 0 0 100 100;" xml:space="preserve">
<g>
	<path d="M50.3,29c-11.6,0-21.1,9.5-21.1,21.1s9.5,21.1,21.1,21.1c11.6,0,21-9.5,21-21.1S61.8,29,50.3,29z M50.3,66.2
		c-8.9,0-16.1-7.2-16.1-16.1c0-8.9,7.2-16.1,16.1-16.1c8.8,0,16,7.2,16,16.1C66.3,59,59.1,66.2,50.3,66.2z"/>
	<path d="M73.8,17.1c-2.2,0-4.2,0.8-5.7,2.3c-1.5,1.5-2.3,3.5-2.3,5.7c0,2.2,0.8,4.2,2.3,5.7c1.5,1.5,3.5,2.3,5.7,2.3
		s4.2-0.8,5.7-2.3v0c1.4-1.4,2.3-3.4,2.4-5.6l0-0.1c0-2.1-0.9-4.1-2.3-5.5C78.1,18,76,17.1,73.8,17.1z M75.9,27.2
		c-1.1,1.1-3.2,1.1-4.3,0c-0.6-0.6-0.9-1.3-0.9-2.1s0.3-1.6,0.9-2.1c0.6-0.6,1.3-0.9,2.1-0.9c0.8,0,1.6,0.3,2.2,0.9
		c0.5,0.5,0.9,1.3,0.9,2C76.8,25.9,76.5,26.7,75.9,27.2z"/>
	<path d="M67.8,7H32.7C18.6,7,7.2,18.4,7.2,32.5v35.2c0,14.1,11.4,25.5,25.5,25.5h35.2c14.1,0,25.5-11.4,25.5-25.5V32.5
		C93.3,18.4,81.9,7,67.8,7z M88.3,67.7c0,11.3-9.2,20.5-20.5,20.5H32.7c-11.3,0-20.5-9.2-20.5-20.5V32.5c0-11.3,9.2-20.5,20.5-20.5
		h35.2c11.3,0,20.5,9.2,20.5,20.5V67.7z"/>
</g>
</svg>
